<svg xmlns="http://www.w3.org/2000/svg" viewBox="0 0 256 256">
<g fill="none" stroke="#fff" stroke-width="7" stroke-linecap="round" stroke-linejoin="round">
  <path d="M34 180 L82 54 L120 142 L168 48 L222 180"/>
  <path d="M62 116 L150 116"/>
  <path d="M58 152 L196 152"/>
  <path d="M86 54 L104 30 L126 46"/>
  <rect x="72" y="118" width="30" height="34" transform="rotate(-9 87 135)"/>
  <rect x="154" y="116" width="34" height="38" transform="rotate(10 171 135)"/>
  <path d="M44 180 Q72 200 98 180"/>
  <path d="M160 180 Q188 202 214 178"/>
  <path d="M88 152 L78 214"/>
  <path d="M102 152 L114 214"/>
  <path d="M170 152 L160 214"/>
  <path d="M184 152 L196 214"/>
  <circle cx="132" cy="32" r="12"/>
</g>
</svg>